<svg xmlns="http://www.w3.org/2000/svg" version="1.1" xmlns:xlink="http://www.w3.org/1999/xlink" xmlns:svgjs="http://svgjs.com/svgjs" width="1440" height="560" preserveAspectRatio="none" viewBox="0 0 1440 560"><g mask="url(&quot;#SvgjsMask1067&quot;)" fill="none"><rect width="1440" height="560" x="0" y="0" fill="rgba(255, 255, 255, 1)"></rect><path d="M 0,18 C 57.6,60.6 172.8,222.4 288,231 C 403.2,239.6 460.8,74 576,61 C 691.2,48 748.8,172.4 864,166 C 979.2,159.6 1036.8,6.4 1152,29 C 1267.2,51.6 1382.4,229 1440,279L1440 560L0 560z" fill="rgba(104, 104, 104, 1)"></path><path d="M 0,470 C 48,445.8 144,333.8 240,349 C 336,364.2 384,535.6 480,546 C 576,556.4 624,410.2 720,401 C 816,391.8 864,511 960,500 C 1056,489 1104,356.6 1200,346 C 1296,335.4 1392,426.8 1440,447L1440 560L0 560z" fill="rgba(0, 0, 0, 1)"></path></g><defs><mask id="SvgjsMask1067"><rect width="1440" height="560" fill="#ffffff"></rect></mask></defs></svg>